<mxfile host="app.diagrams.net" agent="Mozilla/5.0 (X11; Ubuntu; Linux x86_64; rv:130.0) Gecko/20100101 Firefox/130.0" version="24.7.16">
  <diagram id="6a731a19-8d31-9384-78a2-239565b7b9f0" name="Page-1">
    <mxGraphModel dx="1951" dy="1262" grid="1" gridSize="10" guides="1" tooltips="1" connect="1" arrows="1" fold="1" page="1" pageScale="1" pageWidth="1169" pageHeight="827" background="none" math="0" shadow="0">
      <root>
        <mxCell id="0" />
        <mxCell id="1" parent="0" />
        <mxCell id="iDHe0-WgaR2ZryKW1Erz-1820" value="" style="endArrow=classic;html=1;rounded=0;entryX=0.5;entryY=1;entryDx=0;entryDy=0;" edge="1" parent="1" target="iDHe0-WgaR2ZryKW1Erz-1802">
          <mxGeometry width="50" height="50" relative="1" as="geometry">
            <mxPoint x="70" y="110" as="sourcePoint" />
            <mxPoint x="60" y="-80" as="targetPoint" />
          </mxGeometry>
        </mxCell>
        <mxCell id="1745" value="" style="edgeStyle=none;rounded=0;jumpStyle=none;html=1;shadow=0;labelBackgroundColor=none;startArrow=none;startFill=0;endArrow=classic;endFill=1;jettySize=auto;orthogonalLoop=1;strokeColor=#2F5B7C;strokeWidth=3;fontFamily=Helvetica;fontSize=16;fontColor=#23445D;spacing=5;" parent="1" source="1749" target="1764" edge="1">
          <mxGeometry relative="1" as="geometry" />
        </mxCell>
        <mxCell id="iDHe0-WgaR2ZryKW1Erz-1811" value="a pour but de" style="edgeLabel;html=1;align=center;verticalAlign=middle;resizable=0;points=[];" vertex="1" connectable="0" parent="1745">
          <mxGeometry x="0.1384" y="2" relative="1" as="geometry">
            <mxPoint as="offset" />
          </mxGeometry>
        </mxCell>
        <mxCell id="1746" value="" style="edgeStyle=none;rounded=0;jumpStyle=none;html=1;shadow=0;labelBackgroundColor=none;startArrow=none;startFill=0;endArrow=classic;endFill=1;jettySize=auto;orthogonalLoop=1;strokeColor=#2F5B7C;strokeWidth=3;fontFamily=Helvetica;fontSize=16;fontColor=#23445D;spacing=5;" parent="1" source="1749" target="1771" edge="1">
          <mxGeometry relative="1" as="geometry" />
        </mxCell>
        <mxCell id="1747" value="" style="edgeStyle=none;rounded=0;jumpStyle=none;html=1;shadow=0;labelBackgroundColor=none;startArrow=none;startFill=0;endArrow=classic;endFill=1;jettySize=auto;orthogonalLoop=1;strokeColor=#2F5B7C;strokeWidth=3;fontFamily=Helvetica;fontSize=16;fontColor=#23445D;spacing=5;" parent="1" source="1749" target="1760" edge="1">
          <mxGeometry relative="1" as="geometry" />
        </mxCell>
        <mxCell id="1748" value="" style="edgeStyle=none;rounded=0;jumpStyle=none;html=1;shadow=0;labelBackgroundColor=none;startArrow=none;startFill=0;endArrow=classic;endFill=1;jettySize=auto;orthogonalLoop=1;strokeColor=#2F5B7C;strokeWidth=3;fontFamily=Helvetica;fontSize=16;fontColor=#23445D;spacing=5;" parent="1" source="1749" target="1753" edge="1">
          <mxGeometry relative="1" as="geometry" />
        </mxCell>
        <mxCell id="iDHe0-WgaR2ZryKW1Erz-1810" value="se &lt;br&gt;caractérise &lt;br&gt;par" style="edgeLabel;html=1;align=center;verticalAlign=middle;resizable=0;points=[];" vertex="1" connectable="0" parent="1748">
          <mxGeometry x="0.3007" y="1" relative="1" as="geometry">
            <mxPoint x="19" y="-15" as="offset" />
          </mxGeometry>
        </mxCell>
        <mxCell id="1749" value="Quels sont les concepts du projet 1 BioFuel ?" style="rounded=1;whiteSpace=wrap;html=1;shadow=0;labelBackgroundColor=none;strokeColor=#6F0000;strokeWidth=3;fillColor=#a20025;fontFamily=Helvetica;fontSize=16;fontColor=#ffffff;align=center;fontStyle=1;spacing=5;arcSize=7;perimeterSpacing=2;" parent="1" vertex="1">
          <mxGeometry x="495" y="380.5" width="150" height="70" as="geometry" />
        </mxCell>
        <mxCell id="1753" value="Coût Global &lt;br&gt;1.25 Mrds GC" style="rounded=1;whiteSpace=wrap;html=1;shadow=0;labelBackgroundColor=none;strokeColor=#005700;strokeWidth=3;fillColor=#008a00;fontFamily=Helvetica;fontSize=14;fontColor=#ffffff;align=center;spacing=5;fontStyle=1;arcSize=7;perimeterSpacing=2;" parent="1" vertex="1">
          <mxGeometry x="260" y="383" width="150" height="60" as="geometry" />
        </mxCell>
        <mxCell id="1758" value="" style="edgeStyle=none;rounded=0;jumpStyle=none;html=1;shadow=0;labelBackgroundColor=none;startArrow=none;startFill=0;endArrow=classic;endFill=1;jettySize=auto;orthogonalLoop=1;strokeColor=#1699D3;strokeWidth=3;fontFamily=Helvetica;fontSize=14;fontColor=#FFFFFF;spacing=5;" parent="1" source="1760" target="1762" edge="1">
          <mxGeometry relative="1" as="geometry" />
        </mxCell>
        <mxCell id="1760" value="Profil" style="rounded=1;whiteSpace=wrap;html=1;shadow=0;labelBackgroundColor=none;strokeColor=#005700;strokeWidth=3;fillColor=#008a00;fontFamily=Helvetica;fontSize=14;fontColor=#ffffff;align=center;spacing=5;fontStyle=1;arcSize=7;perimeterSpacing=2;" parent="1" vertex="1">
          <mxGeometry x="680" y="480" width="150" height="60" as="geometry" />
        </mxCell>
        <mxCell id="1762" value="Budget" style="rounded=1;whiteSpace=wrap;html=1;shadow=0;labelBackgroundColor=none;strokeColor=#001DBC;strokeWidth=3;fillColor=#0050ef;fontFamily=Helvetica;fontSize=14;fontColor=#ffffff;align=center;spacing=5;arcSize=7;perimeterSpacing=2;" parent="1" vertex="1">
          <mxGeometry x="680" y="580" width="150" height="60" as="geometry" />
        </mxCell>
        <mxCell id="1764" value="produire un carburant" style="rounded=1;whiteSpace=wrap;html=1;shadow=0;labelBackgroundColor=none;strokeColor=#005700;strokeWidth=3;fillColor=#008a00;fontFamily=Helvetica;fontSize=14;fontColor=#ffffff;align=center;spacing=5;fontStyle=1;arcSize=7;perimeterSpacing=2;" parent="1" vertex="1">
          <mxGeometry x="310" y="254.5" width="150" height="60" as="geometry" />
        </mxCell>
        <mxCell id="1767" value="Disponibilité universelle" style="rounded=1;whiteSpace=wrap;html=1;shadow=0;labelBackgroundColor=none;strokeColor=#001DBC;strokeWidth=3;fillColor=#0050ef;fontFamily=Helvetica;fontSize=14;fontColor=#ffffff;align=center;spacing=5;arcSize=7;perimeterSpacing=2;" parent="1" vertex="1">
          <mxGeometry x="310" y="110" width="150" height="60" as="geometry" />
        </mxCell>
        <mxCell id="1771" value="Organisation" style="rounded=1;whiteSpace=wrap;html=1;shadow=0;labelBackgroundColor=none;strokeColor=#005700;strokeWidth=3;fillColor=#008a00;fontFamily=Helvetica;fontSize=14;fontColor=#ffffff;align=center;spacing=5;fontStyle=1;arcSize=7;perimeterSpacing=2;" parent="1" vertex="1">
          <mxGeometry x="680" y="254.4999999999999" width="150" height="60" as="geometry" />
        </mxCell>
        <mxCell id="1778" value="PR" style="rounded=1;whiteSpace=wrap;html=1;shadow=0;labelBackgroundColor=none;strokeColor=#001DBC;strokeWidth=3;fillColor=#0050ef;fontFamily=Helvetica;fontSize=14;fontColor=#ffffff;align=center;spacing=5;fontStyle=0;arcSize=7;perimeterSpacing=2;" parent="1" vertex="1">
          <mxGeometry x="680" y="110" width="150" height="60" as="geometry" />
        </mxCell>
        <mxCell id="1779" value="" style="edgeStyle=none;rounded=1;jumpStyle=none;html=1;shadow=0;labelBackgroundColor=none;startArrow=none;startFill=0;jettySize=auto;orthogonalLoop=1;strokeColor=#12AAB5;strokeWidth=3;fontFamily=Helvetica;fontSize=14;fontColor=#FFFFFF;spacing=5;fontStyle=1;fillColor=#b0e3e6;" parent="1" source="1771" target="1778" edge="1">
          <mxGeometry relative="1" as="geometry" />
        </mxCell>
        <mxCell id="iDHe0-WgaR2ZryKW1Erz-1779" value="" style="edgeStyle=none;rounded=0;jumpStyle=none;html=1;shadow=0;labelBackgroundColor=none;startArrow=none;startFill=0;endArrow=classic;endFill=1;jettySize=auto;orthogonalLoop=1;strokeColor=#2F5B7C;strokeWidth=3;fontFamily=Helvetica;fontSize=16;fontColor=#23445D;spacing=5;exitX=0.5;exitY=0;exitDx=0;exitDy=0;" edge="1" parent="1" target="iDHe0-WgaR2ZryKW1Erz-1780" source="1749">
          <mxGeometry relative="1" as="geometry">
            <mxPoint x="1080" y="359" as="sourcePoint" />
          </mxGeometry>
        </mxCell>
        <mxCell id="iDHe0-WgaR2ZryKW1Erz-1780" value="projet sorti" style="rounded=1;whiteSpace=wrap;html=1;shadow=0;labelBackgroundColor=none;strokeColor=#005700;strokeWidth=3;fillColor=#008a00;fontFamily=Helvetica;fontSize=14;fontColor=#ffffff;align=center;spacing=5;fontStyle=1;arcSize=7;perimeterSpacing=2;" vertex="1" parent="1">
          <mxGeometry x="495" y="254.5" width="150" height="60" as="geometry" />
        </mxCell>
        <mxCell id="iDHe0-WgaR2ZryKW1Erz-1783" value="Instruments" style="rounded=1;whiteSpace=wrap;html=1;shadow=0;labelBackgroundColor=none;strokeColor=#001DBC;strokeWidth=3;fillColor=#0050ef;fontFamily=Helvetica;fontSize=14;fontColor=#ffffff;align=center;spacing=5;arcSize=7;perimeterSpacing=2;" vertex="1" parent="1">
          <mxGeometry x="495" y="110" width="150" height="60" as="geometry" />
        </mxCell>
        <mxCell id="iDHe0-WgaR2ZryKW1Erz-1784" value="" style="edgeStyle=none;rounded=0;jumpStyle=none;html=1;shadow=0;labelBackgroundColor=none;startArrow=none;startFill=0;endArrow=classic;endFill=1;jettySize=auto;orthogonalLoop=1;strokeColor=#F08705;strokeWidth=3;fontFamily=Helvetica;fontSize=14;fontColor=#FFFFFF;spacing=5;" edge="1" parent="1" source="iDHe0-WgaR2ZryKW1Erz-1780" target="iDHe0-WgaR2ZryKW1Erz-1783">
          <mxGeometry relative="1" as="geometry" />
        </mxCell>
        <mxCell id="iDHe0-WgaR2ZryKW1Erz-1787" value="" style="edgeStyle=none;rounded=0;jumpStyle=none;html=1;shadow=0;labelBackgroundColor=none;startArrow=none;startFill=0;endArrow=classic;endFill=1;jettySize=auto;orthogonalLoop=1;strokeColor=#2F5B7C;strokeWidth=3;fontFamily=Helvetica;fontSize=16;fontColor=#23445D;spacing=5;entryX=0;entryY=0.5;entryDx=0;entryDy=0;exitX=1;exitY=0.5;exitDx=0;exitDy=0;" edge="1" parent="1" target="iDHe0-WgaR2ZryKW1Erz-1788" source="1749">
          <mxGeometry relative="1" as="geometry">
            <mxPoint x="810" y="564.5" as="sourcePoint" />
          </mxGeometry>
        </mxCell>
        <mxCell id="iDHe0-WgaR2ZryKW1Erz-1788" value="Gouvernance&lt;br&gt;comité de pilotage" style="rounded=1;whiteSpace=wrap;html=1;shadow=0;labelBackgroundColor=none;strokeColor=#005700;strokeWidth=3;fillColor=#008a00;fontFamily=Helvetica;fontSize=14;fontColor=#ffffff;align=center;spacing=5;fontStyle=1;arcSize=7;perimeterSpacing=2;" vertex="1" parent="1">
          <mxGeometry x="720" y="385.4999999999999" width="150" height="60" as="geometry" />
        </mxCell>
        <mxCell id="iDHe0-WgaR2ZryKW1Erz-1792" value="" style="edgeStyle=none;rounded=0;jumpStyle=none;html=1;shadow=0;labelBackgroundColor=none;startArrow=none;startFill=0;endArrow=classic;endFill=1;jettySize=auto;orthogonalLoop=1;strokeColor=#2F5B7C;strokeWidth=3;fontFamily=Helvetica;fontSize=16;fontColor=#23445D;spacing=5;exitX=0;exitY=1;exitDx=0;exitDy=0;" edge="1" parent="1" target="iDHe0-WgaR2ZryKW1Erz-1796" source="1749">
          <mxGeometry relative="1" as="geometry">
            <mxPoint x="320" y="440" as="sourcePoint" />
          </mxGeometry>
        </mxCell>
        <mxCell id="iDHe0-WgaR2ZryKW1Erz-1795" value="" style="edgeStyle=none;rounded=0;jumpStyle=none;html=1;shadow=0;labelBackgroundColor=none;startArrow=none;startFill=0;endArrow=classic;endFill=1;jettySize=auto;orthogonalLoop=1;strokeColor=#1699D3;strokeWidth=3;fontFamily=Helvetica;fontSize=14;fontColor=#FFFFFF;spacing=5;" edge="1" parent="1" source="iDHe0-WgaR2ZryKW1Erz-1796" target="iDHe0-WgaR2ZryKW1Erz-1797">
          <mxGeometry relative="1" as="geometry" />
        </mxCell>
        <mxCell id="iDHe0-WgaR2ZryKW1Erz-1796" value="Caractéristiques" style="rounded=1;whiteSpace=wrap;html=1;shadow=0;labelBackgroundColor=none;strokeColor=#005700;strokeWidth=3;fillColor=#008a00;fontFamily=Helvetica;fontSize=14;fontColor=#ffffff;align=center;spacing=5;fontStyle=1;arcSize=7;perimeterSpacing=2;" vertex="1" parent="1">
          <mxGeometry x="310" y="480" width="150" height="60" as="geometry" />
        </mxCell>
        <mxCell id="iDHe0-WgaR2ZryKW1Erz-1797" value="Content" style="rounded=1;whiteSpace=wrap;html=1;shadow=0;labelBackgroundColor=none;strokeColor=#001DBC;strokeWidth=3;fillColor=#0050ef;fontFamily=Helvetica;fontSize=14;fontColor=#ffffff;align=center;spacing=5;arcSize=7;perimeterSpacing=2;" vertex="1" parent="1">
          <mxGeometry x="310" y="580" width="150" height="60" as="geometry" />
        </mxCell>
        <mxCell id="iDHe0-WgaR2ZryKW1Erz-1800" value="Ecologique" style="rounded=1;whiteSpace=wrap;html=1;shadow=0;labelBackgroundColor=none;strokeColor=#001DBC;strokeWidth=3;fillColor=#0050ef;fontFamily=Helvetica;fontSize=14;fontColor=#ffffff;align=center;spacing=5;arcSize=7;perimeterSpacing=2;" vertex="1" parent="1">
          <mxGeometry x="150" y="110" width="150" height="60" as="geometry" />
        </mxCell>
        <mxCell id="iDHe0-WgaR2ZryKW1Erz-1801" value="Social" style="rounded=1;whiteSpace=wrap;html=1;shadow=0;labelBackgroundColor=none;strokeColor=#001DBC;strokeWidth=3;fillColor=#0050ef;fontFamily=Helvetica;fontSize=14;fontColor=#ffffff;align=center;spacing=5;arcSize=7;perimeterSpacing=2;" vertex="1" parent="1">
          <mxGeometry x="-10" y="110" width="150" height="60" as="geometry" />
        </mxCell>
        <mxCell id="iDHe0-WgaR2ZryKW1Erz-1802" value="createur d&#39; emploi" style="rounded=1;whiteSpace=wrap;html=1;shadow=0;labelBackgroundColor=none;strokeWidth=3;fontFamily=Helvetica;fontSize=14;align=center;spacing=5;arcSize=7;perimeterSpacing=2;" vertex="1" parent="1">
          <mxGeometry x="10" width="120" height="60" as="geometry" />
        </mxCell>
        <mxCell id="iDHe0-WgaR2ZryKW1Erz-1804" value="local" style="rounded=1;whiteSpace=wrap;html=1;shadow=0;labelBackgroundColor=none;strokeWidth=3;fontFamily=Helvetica;fontSize=14;align=center;spacing=5;arcSize=7;perimeterSpacing=2;" vertex="1" parent="1">
          <mxGeometry x="190" width="70" height="60" as="geometry" />
        </mxCell>
        <mxCell id="iDHe0-WgaR2ZryKW1Erz-1814" value="" style="edgeStyle=elbowEdgeStyle;elbow=vertical;endArrow=classic;html=1;curved=0;rounded=0;endSize=8;startSize=8;" edge="1" parent="1">
          <mxGeometry width="50" height="50" relative="1" as="geometry">
            <mxPoint x="390" y="254.5" as="sourcePoint" />
            <mxPoint x="390" y="170" as="targetPoint" />
          </mxGeometry>
        </mxCell>
        <mxCell id="iDHe0-WgaR2ZryKW1Erz-1815" value="" style="edgeStyle=elbowEdgeStyle;elbow=vertical;endArrow=classic;html=1;curved=0;rounded=0;endSize=8;startSize=8;entryX=0.5;entryY=1;entryDx=0;entryDy=0;" edge="1" parent="1" target="iDHe0-WgaR2ZryKW1Erz-1801">
          <mxGeometry width="50" height="50" relative="1" as="geometry">
            <mxPoint x="390" y="250" as="sourcePoint" />
            <mxPoint x="400" y="180" as="targetPoint" />
          </mxGeometry>
        </mxCell>
        <mxCell id="iDHe0-WgaR2ZryKW1Erz-1818" value="a pour but d&#39;être" style="edgeLabel;html=1;align=center;verticalAlign=middle;resizable=0;points=[];" vertex="1" connectable="0" parent="iDHe0-WgaR2ZryKW1Erz-1815">
          <mxGeometry x="-0.1651" relative="1" as="geometry">
            <mxPoint x="-201" y="-131" as="offset" />
          </mxGeometry>
        </mxCell>
        <mxCell id="iDHe0-WgaR2ZryKW1Erz-1817" value="" style="edgeStyle=segmentEdgeStyle;endArrow=classic;html=1;curved=0;rounded=0;endSize=8;startSize=8;entryX=0.532;entryY=0.967;entryDx=0;entryDy=0;entryPerimeter=0;" edge="1" parent="1" target="iDHe0-WgaR2ZryKW1Erz-1800">
          <mxGeometry width="50" height="50" relative="1" as="geometry">
            <mxPoint x="230" y="210" as="sourcePoint" />
            <mxPoint x="290" y="240" as="targetPoint" />
          </mxGeometry>
        </mxCell>
        <mxCell id="iDHe0-WgaR2ZryKW1Erz-1822" value="a pour but d&#39;être" style="edgeLabel;html=1;align=center;verticalAlign=middle;resizable=0;points=[];" vertex="1" connectable="0" parent="1">
          <mxGeometry x="230.00238095238097" y="210.00238095238097" as="geometry" />
        </mxCell>
        <mxCell id="iDHe0-WgaR2ZryKW1Erz-1823" value="" style="endArrow=classic;html=1;rounded=0;entryX=0.5;entryY=1;entryDx=0;entryDy=0;" edge="1" parent="1" target="iDHe0-WgaR2ZryKW1Erz-1804">
          <mxGeometry width="50" height="50" relative="1" as="geometry">
            <mxPoint x="225.5" y="110" as="sourcePoint" />
            <mxPoint x="224.5" y="42" as="targetPoint" />
          </mxGeometry>
        </mxCell>
        <mxCell id="iDHe0-WgaR2ZryKW1Erz-1824" value="a pour but d&#39;être" style="edgeLabel;html=1;align=center;verticalAlign=middle;resizable=0;points=[];" vertex="1" connectable="0" parent="1">
          <mxGeometry x="225.00333333333347" y="80.00333333333326" as="geometry" />
        </mxCell>
        <mxCell id="iDHe0-WgaR2ZryKW1Erz-1831" value="" style="endArrow=classic;html=1;rounded=0;exitX=0;exitY=0.5;exitDx=0;exitDy=0;entryX=1;entryY=0.5;entryDx=0;entryDy=0;edgeStyle=orthogonalEdgeStyle;elbow=vertical;" edge="1" parent="1" source="1753" target="1755">
          <mxGeometry width="50" height="50" relative="1" as="geometry">
            <mxPoint x="200" y="530" as="sourcePoint" />
            <mxPoint x="250" y="480" as="targetPoint" />
          </mxGeometry>
        </mxCell>
        <mxCell id="iDHe0-WgaR2ZryKW1Erz-1836" value="" style="endArrow=classic;html=1;rounded=0;entryX=0.988;entryY=0.49;entryDx=0;entryDy=0;edgeStyle=orthogonalEdgeStyle;elbow=vertical;entryPerimeter=0;" edge="1" parent="1" target="iDHe0-WgaR2ZryKW1Erz-1825">
          <mxGeometry width="50" height="50" relative="1" as="geometry">
            <mxPoint x="220" y="410" as="sourcePoint" />
            <mxPoint x="172" y="423" as="targetPoint" />
            <Array as="points">
              <mxPoint x="220" y="480" />
            </Array>
          </mxGeometry>
        </mxCell>
        <mxCell id="iDHe0-WgaR2ZryKW1Erz-1839" value="se &lt;br&gt;decompose&lt;br&gt; de " style="edgeLabel;html=1;align=center;verticalAlign=middle;resizable=0;points=[];" vertex="1" connectable="0" parent="iDHe0-WgaR2ZryKW1Erz-1836">
          <mxGeometry x="-1" y="-1" relative="1" as="geometry">
            <mxPoint x="1" y="10" as="offset" />
          </mxGeometry>
        </mxCell>
        <mxCell id="iDHe0-WgaR2ZryKW1Erz-1837" value="" style="endArrow=classic;html=1;rounded=0;entryX=0.988;entryY=0.49;entryDx=0;entryDy=0;edgeStyle=orthogonalEdgeStyle;elbow=vertical;entryPerimeter=0;" edge="1" parent="1">
          <mxGeometry width="50" height="50" relative="1" as="geometry">
            <mxPoint x="220" y="480" as="sourcePoint" />
            <mxPoint x="160" y="550" as="targetPoint" />
            <Array as="points">
              <mxPoint x="220" y="550" />
            </Array>
          </mxGeometry>
        </mxCell>
        <mxCell id="iDHe0-WgaR2ZryKW1Erz-1838" value="" style="endArrow=classic;html=1;rounded=0;entryX=0.988;entryY=0.49;entryDx=0;entryDy=0;edgeStyle=orthogonalEdgeStyle;elbow=vertical;entryPerimeter=0;" edge="1" parent="1">
          <mxGeometry width="50" height="50" relative="1" as="geometry">
            <mxPoint x="220" y="550" as="sourcePoint" />
            <mxPoint x="160" y="620" as="targetPoint" />
            <Array as="points">
              <mxPoint x="220" y="620" />
            </Array>
          </mxGeometry>
        </mxCell>
        <mxCell id="iDHe0-WgaR2ZryKW1Erz-1840" value="" style="group" vertex="1" connectable="0" parent="1">
          <mxGeometry x="50" y="383" width="110" height="267.5" as="geometry" />
        </mxCell>
        <mxCell id="1755" value="&lt;div&gt;&lt;br&gt;&lt;/div&gt;&lt;div&gt;investissement&lt;/div&gt;650 M GC&lt;div&gt;&lt;br&gt;&lt;/div&gt;" style="rounded=1;whiteSpace=wrap;html=1;shadow=0;labelBackgroundColor=none;strokeColor=#001DBC;strokeWidth=3;fillColor=#0050ef;fontFamily=Helvetica;fontSize=14;fontColor=#ffffff;align=center;spacing=5;fontStyle=0;arcSize=7;perimeterSpacing=2;" parent="iDHe0-WgaR2ZryKW1Erz-1840" vertex="1">
          <mxGeometry width="110" height="60" as="geometry" />
        </mxCell>
        <mxCell id="iDHe0-WgaR2ZryKW1Erz-1825" value="&lt;br&gt;&lt;div&gt;utilisation&lt;/div&gt;370 M GC&lt;div&gt;&lt;br&gt;&lt;/div&gt;" style="rounded=1;whiteSpace=wrap;html=1;shadow=0;labelBackgroundColor=none;strokeColor=#001DBC;strokeWidth=3;fillColor=#0050ef;fontFamily=Helvetica;fontSize=14;fontColor=#ffffff;align=center;spacing=5;fontStyle=0;arcSize=7;perimeterSpacing=2;" vertex="1" parent="iDHe0-WgaR2ZryKW1Erz-1840">
          <mxGeometry y="67.5" width="110.00000000000001" height="60" as="geometry" />
        </mxCell>
        <mxCell id="iDHe0-WgaR2ZryKW1Erz-1826" value="&lt;div&gt;&lt;br&gt;&lt;/div&gt;&lt;div&gt;developpement&lt;/div&gt;200 M GC&lt;div&gt;&lt;br&gt;&lt;/div&gt;" style="rounded=1;whiteSpace=wrap;html=1;shadow=0;labelBackgroundColor=none;strokeColor=#001DBC;strokeWidth=3;fillColor=#0050ef;fontFamily=Helvetica;fontSize=14;fontColor=#ffffff;align=center;spacing=5;fontStyle=0;arcSize=7;perimeterSpacing=2;" vertex="1" parent="iDHe0-WgaR2ZryKW1Erz-1840">
          <mxGeometry y="137.5" width="110.00000000000001" height="60" as="geometry" />
        </mxCell>
        <mxCell id="iDHe0-WgaR2ZryKW1Erz-1827" value="&lt;br&gt;&lt;div&gt;extinction&lt;/div&gt;30 M GC&lt;div&gt;&lt;br&gt;&lt;/div&gt;" style="rounded=1;whiteSpace=wrap;html=1;shadow=0;labelBackgroundColor=none;strokeColor=#001DBC;strokeWidth=3;fillColor=#0050ef;fontFamily=Helvetica;fontSize=14;fontColor=#ffffff;align=center;spacing=5;fontStyle=0;arcSize=7;perimeterSpacing=2;" vertex="1" parent="iDHe0-WgaR2ZryKW1Erz-1840">
          <mxGeometry y="207.5" width="110.00000000000001" height="60" as="geometry" />
        </mxCell>
        <mxCell id="iDHe0-WgaR2ZryKW1Erz-1841" value="organigramme" style="text;whiteSpace=wrap;html=1;" vertex="1" parent="1">
          <mxGeometry x="515" width="110" height="40" as="geometry" />
        </mxCell>
        <mxCell id="iDHe0-WgaR2ZryKW1Erz-1789" value="MOA" style="rounded=1;whiteSpace=wrap;html=1;shadow=0;labelBackgroundColor=none;strokeColor=#001DBC;strokeWidth=3;fillColor=#0050ef;fontFamily=Helvetica;fontSize=14;fontColor=#ffffff;align=center;spacing=5;fontStyle=0;arcSize=7;perimeterSpacing=2;" vertex="1" parent="1">
          <mxGeometry x="930" y="356" width="80" height="44.5" as="geometry" />
        </mxCell>
        <mxCell id="iDHe0-WgaR2ZryKW1Erz-1845" value="MOE" style="rounded=1;whiteSpace=wrap;html=1;shadow=0;labelBackgroundColor=none;strokeColor=#001DBC;strokeWidth=3;fillColor=#0050ef;fontFamily=Helvetica;fontSize=14;fontColor=#ffffff;align=center;spacing=5;fontStyle=0;arcSize=7;perimeterSpacing=2;" vertex="1" parent="1">
          <mxGeometry x="930" y="426" width="80" height="44.5" as="geometry" />
        </mxCell>
        <mxCell id="iDHe0-WgaR2ZryKW1Erz-1849" value="&lt;b&gt;AMOA&lt;/b&gt; &lt;br&gt;Tara Flint" style="rounded=1;whiteSpace=wrap;html=1;shadow=0;labelBackgroundColor=none;strokeWidth=3;fontFamily=Helvetica;fontSize=14;align=center;spacing=5;fontStyle=0;arcSize=7;perimeterSpacing=2;" vertex="1" parent="1">
          <mxGeometry x="1130" y="262.25" width="80" height="44.5" as="geometry" />
        </mxCell>
        <mxCell id="iDHe0-WgaR2ZryKW1Erz-1850" value="&lt;div align=&quot;center&quot;&gt;&lt;b&gt;Comité direction &lt;/b&gt;&lt;/div&gt;&lt;div&gt;&lt;u&gt;Président&lt;/u&gt;: Jakob Niles&lt;/div&gt;&lt;div&gt;&lt;u&gt;vice présidente&lt;/u&gt; : Lena Kostas&lt;/div&gt;&lt;div&gt;&lt;u&gt;secrétaire général&lt;/u&gt; : Rajeev Singh&lt;br&gt;&lt;u&gt;directeur logistique&lt;/u&gt; : Hiro Tanaka&lt;br&gt;&lt;/div&gt;" style="rounded=1;whiteSpace=wrap;html=1;shadow=0;labelBackgroundColor=none;strokeWidth=3;fontFamily=Helvetica;fontSize=14;align=left;spacing=5;fontStyle=0;arcSize=7;perimeterSpacing=2;" vertex="1" parent="1">
          <mxGeometry x="1050" y="330" width="240" height="90" as="geometry" />
        </mxCell>
        <mxCell id="iDHe0-WgaR2ZryKW1Erz-1851" value="&lt;div&gt;&lt;b&gt;Porteur de Projet&lt;/b&gt;&amp;nbsp;&lt;/div&gt;&lt;div&gt;&lt;b&gt;U&lt;/b&gt;nion &lt;b&gt;F&lt;/b&gt;édérale des &lt;b&gt;P&lt;/b&gt;ays&lt;/div&gt;" style="rounded=1;whiteSpace=wrap;html=1;shadow=0;labelBackgroundColor=none;strokeWidth=3;fontFamily=Helvetica;fontSize=14;align=center;spacing=5;fontStyle=0;arcSize=7;perimeterSpacing=2;" vertex="1" parent="1">
          <mxGeometry x="1050" y="190" width="240" height="54.5" as="geometry" />
        </mxCell>
        <mxCell id="iDHe0-WgaR2ZryKW1Erz-1852" value="&lt;div&gt;&lt;u&gt;directeur exploitation&lt;/u&gt; : Dalil Kadiry&lt;br&gt;&lt;/div&gt;&lt;div&gt;&lt;u&gt;DRH&lt;/u&gt; : Laura Lopez&lt;br&gt;&lt;u&gt;directeur commercial&lt;/u&gt; : Christian Yameogo&lt;br&gt;&lt;/div&gt;" style="rounded=1;whiteSpace=wrap;html=1;shadow=0;labelBackgroundColor=none;strokeWidth=3;fontFamily=Helvetica;fontSize=14;align=left;spacing=5;fontStyle=0;arcSize=7;perimeterSpacing=2;" vertex="1" parent="1">
          <mxGeometry x="1020" y="550" width="300" height="90" as="geometry" />
        </mxCell>
        <mxCell id="iDHe0-WgaR2ZryKW1Erz-1853" value="&lt;div&gt;&lt;b&gt;Chef de Projet&lt;/b&gt;&amp;nbsp;&lt;/div&gt;&lt;div align=&quot;left&quot;&gt;&lt;u&gt;ceo&lt;/u&gt;: Alberto Lopez&lt;/div&gt;" style="rounded=1;whiteSpace=wrap;html=1;shadow=0;labelBackgroundColor=none;strokeWidth=3;fontFamily=Helvetica;fontSize=14;align=center;spacing=5;fontStyle=0;arcSize=7;perimeterSpacing=2;" vertex="1" parent="1">
          <mxGeometry x="1100" y="470.5" width="140" height="54.5" as="geometry" />
        </mxCell>
      </root>
    </mxGraphModel>
  </diagram>
</mxfile>
